# xmcd CD database file
#
# Track frame offsets:
#	150
#	28081
#	59557
#	99877
#	136933
#	163505
#	191973
#	202910
#	225572
#
# Disc length: 3213 seconds
#
# Revision: 0
# Processed by: cddbd v1.5.2PL0 Copyright (c) Steve Scherf et al.
# Submitted via: CDex 1.51
#
DISCID=740c8b09
DTITLE=Various Artist - El Capitan 1 (Difono May 2008)
DYEAR=2008
DGENRE=Jazz
TTITLE0=TOO CLOSE-GEORGE KONTRAFOURIS
TTITLE1=MILES LEVENTIKOS-MODE PLAGAL
TTITLE2=MUTUAL RESPECT-GEORGE POLIHRONAKOS
TTITLE3=VAMPIRES SLEEP-TAKIS PATERELIS
TTITLE4=LIZA-BENNY GOLSON
TTITLE5=BLUE AND BOOGIE-PADELIS BENETAROS-YIORGOS FAKANAS-JOHN STAVROPOULOS
TTITLE6=OUDEN PROVLIMA-MAGDA GIANNIKOU
TTITLE7=MR QUICA-COSTAS BALTAZANIS
TTITLE8=ELISPONTOS-PIROS AITHIR
EXTD=YEAR: 2008
EXTT0=
EXTT1=
EXTT2=
EXTT3=
EXTT4=
EXTT5=
EXTT6=
EXTT7=
EXTT8=
PLAYORDER=
